<svg width="20" height="18" viewBox="0 0 20 18" fill="none" xmlns="http://www.w3.org/2000/svg">
<path d="M9.99992 17.2271L9.06034 16.3792C7.44444 14.8954 6.10852 13.6154 5.05258 12.5393C3.99664 11.4631 3.15547 10.5011 2.52909 9.65316C1.9027 8.80524 1.46346 8.03753 1.21138 7.35003C0.959294 6.66253 0.833252 5.96739 0.833252 5.26462C0.833252 3.88725 1.2954 2.73701 2.21971 1.81389C3.14402 0.890763 4.28603 0.429199 5.64575 0.429199C6.51659 0.429199 7.32249 0.635449 8.06346 1.04795C8.80443 1.46045 9.44992 2.05628 9.99992 2.83545C10.6416 2.01045 11.3214 1.40316 12.0395 1.01357C12.7576 0.623991 13.5291 0.429199 14.3541 0.429199C15.7138 0.429199 16.8558 0.890763 17.7801 1.81389C18.7044 2.73701 19.1666 3.88725 19.1666 5.26462C19.1666 5.96739 19.0405 6.66253 18.7885 7.35003C18.5364 8.03753 18.0971 8.80524 17.4708 9.65316C16.8444 10.5011 16.0032 11.4631 14.9473 12.5393C13.8913 13.6154 12.5554 14.8954 10.9395 16.3792L9.99992 17.2271ZM9.99992 15.4167C11.5466 13.9959 12.8194 12.7776 13.8182 11.7615C14.8171 10.7455 15.6107 9.85559 16.1989 9.0917C16.7871 8.32781 17.1996 7.64692 17.4364 7.04902C17.6732 6.45111 17.7916 5.85742 17.7916 5.26794C17.7916 4.25739 17.4708 3.42746 16.8291 2.77816C16.1874 2.12885 15.3641 1.8042 14.3592 1.8042C13.5721 1.8042 12.8435 2.04482 12.1736 2.52607C11.5036 3.00732 10.9624 3.68337 10.5499 4.5542H9.427C9.02978 3.69864 8.4962 3.02642 7.82627 2.53753C7.15633 2.04864 6.42777 1.8042 5.6406 1.8042C4.6357 1.8042 3.81242 2.12885 3.17075 2.77816C2.52909 3.42746 2.20825 4.2587 2.20825 5.27186C2.20825 5.86286 2.32665 6.4601 2.56346 7.06357C2.80027 7.66705 3.21277 8.35455 3.80096 9.12607C4.38915 9.8976 5.18742 10.7875 6.19575 11.7959C7.20409 12.8042 8.47214 14.0111 9.99992 15.4167Z" fill="#55A3FF"/>
</svg>
